<mxfile host="app.diagrams.net" modified="2023-05-28T13:50:10.358Z" agent="Mozilla/5.0 (Windows NT 10.0; Win64; x64) AppleWebKit/537.36 (KHTML, like Gecko) Chrome/112.0.0.0 Safari/537.36 OPR/98.0.0.0" etag="rZTFDWOqgHXf_2eETuEC" version="21.3.4" type="device">
  <diagram name="Page-1" id="bnlR6SahmsRWUH3v-4KW">
    <mxGraphModel dx="274" dy="774" grid="1" gridSize="10" guides="1" tooltips="1" connect="1" arrows="1" fold="1" page="1" pageScale="1" pageWidth="1169" pageHeight="1654" math="0" shadow="0">
      <root>
        <mxCell id="0" />
        <mxCell id="1" parent="0" />
        <mxCell id="l6THZrN9f41VRggdj1tv-95" value="" style="shape=umlLifeline;perimeter=lifelinePerimeter;whiteSpace=wrap;html=1;container=1;dropTarget=0;collapsible=0;recursiveResize=0;outlineConnect=0;portConstraint=eastwest;newEdgeStyle={&quot;edgeStyle&quot;:&quot;elbowEdgeStyle&quot;,&quot;elbow&quot;:&quot;vertical&quot;,&quot;curved&quot;:0,&quot;rounded&quot;:0};participant=umlBoundary;" vertex="1" parent="1">
          <mxGeometry x="2665" y="566.5" width="50" height="937" as="geometry" />
        </mxCell>
        <mxCell id="l6THZrN9f41VRggdj1tv-96" value="" style="shape=umlLifeline;perimeter=lifelinePerimeter;whiteSpace=wrap;html=1;container=1;dropTarget=0;collapsible=0;recursiveResize=0;outlineConnect=0;portConstraint=eastwest;newEdgeStyle={&quot;edgeStyle&quot;:&quot;elbowEdgeStyle&quot;,&quot;elbow&quot;:&quot;vertical&quot;,&quot;curved&quot;:0,&quot;rounded&quot;:0};participant=umlBoundary;" vertex="1" parent="1">
          <mxGeometry x="2545" y="566.5" width="50" height="963.5" as="geometry" />
        </mxCell>
        <mxCell id="l6THZrN9f41VRggdj1tv-97" value="" style="html=1;points=[];perimeter=orthogonalPerimeter;outlineConnect=0;targetShapes=umlLifeline;portConstraint=eastwest;newEdgeStyle={&quot;edgeStyle&quot;:&quot;elbowEdgeStyle&quot;,&quot;elbow&quot;:&quot;vertical&quot;,&quot;curved&quot;:0,&quot;rounded&quot;:0};" vertex="1" parent="l6THZrN9f41VRggdj1tv-96">
          <mxGeometry x="20" y="373" width="10" height="397" as="geometry" />
        </mxCell>
        <mxCell id="l6THZrN9f41VRggdj1tv-98" value="" style="shape=umlLifeline;perimeter=lifelinePerimeter;whiteSpace=wrap;html=1;container=1;dropTarget=0;collapsible=0;recursiveResize=0;outlineConnect=0;portConstraint=eastwest;newEdgeStyle={&quot;edgeStyle&quot;:&quot;elbowEdgeStyle&quot;,&quot;elbow&quot;:&quot;vertical&quot;,&quot;curved&quot;:0,&quot;rounded&quot;:0};participant=umlBoundary;" vertex="1" parent="1">
          <mxGeometry x="2435" y="569.5" width="50" height="900.5" as="geometry" />
        </mxCell>
        <mxCell id="l6THZrN9f41VRggdj1tv-99" value="" style="html=1;points=[];perimeter=orthogonalPerimeter;outlineConnect=0;targetShapes=umlLifeline;portConstraint=eastwest;newEdgeStyle={&quot;edgeStyle&quot;:&quot;elbowEdgeStyle&quot;,&quot;elbow&quot;:&quot;vertical&quot;,&quot;curved&quot;:0,&quot;rounded&quot;:0};" vertex="1" parent="l6THZrN9f41VRggdj1tv-98">
          <mxGeometry x="20" y="320.5" width="10" height="49.5" as="geometry" />
        </mxCell>
        <mxCell id="l6THZrN9f41VRggdj1tv-100" value="" style="shape=umlLifeline;perimeter=lifelinePerimeter;whiteSpace=wrap;html=1;container=1;dropTarget=0;collapsible=0;recursiveResize=0;outlineConnect=0;portConstraint=eastwest;newEdgeStyle={&quot;edgeStyle&quot;:&quot;elbowEdgeStyle&quot;,&quot;elbow&quot;:&quot;vertical&quot;,&quot;curved&quot;:0,&quot;rounded&quot;:0};participant=umlBoundary;" vertex="1" parent="1">
          <mxGeometry x="2245" y="570" width="50" height="920" as="geometry" />
        </mxCell>
        <mxCell id="l6THZrN9f41VRggdj1tv-101" value="" style="html=1;points=[];perimeter=orthogonalPerimeter;outlineConnect=0;targetShapes=umlLifeline;portConstraint=eastwest;newEdgeStyle={&quot;edgeStyle&quot;:&quot;elbowEdgeStyle&quot;,&quot;elbow&quot;:&quot;vertical&quot;,&quot;curved&quot;:0,&quot;rounded&quot;:0};" vertex="1" parent="l6THZrN9f41VRggdj1tv-100">
          <mxGeometry x="20" y="290" width="10" height="10" as="geometry" />
        </mxCell>
        <mxCell id="l6THZrN9f41VRggdj1tv-102" value="" style="shape=umlLifeline;perimeter=lifelinePerimeter;whiteSpace=wrap;html=1;container=1;dropTarget=0;collapsible=0;recursiveResize=0;outlineConnect=0;portConstraint=eastwest;newEdgeStyle={&quot;edgeStyle&quot;:&quot;elbowEdgeStyle&quot;,&quot;elbow&quot;:&quot;vertical&quot;,&quot;curved&quot;:0,&quot;rounded&quot;:0};participant=umlBoundary;" vertex="1" parent="1">
          <mxGeometry x="1965" y="570" width="50" height="850" as="geometry" />
        </mxCell>
        <mxCell id="l6THZrN9f41VRggdj1tv-103" value="" style="html=1;points=[];perimeter=orthogonalPerimeter;outlineConnect=0;targetShapes=umlLifeline;portConstraint=eastwest;newEdgeStyle={&quot;edgeStyle&quot;:&quot;elbowEdgeStyle&quot;,&quot;elbow&quot;:&quot;vertical&quot;,&quot;curved&quot;:0,&quot;rounded&quot;:0};" vertex="1" parent="l6THZrN9f41VRggdj1tv-102">
          <mxGeometry x="20" y="90" width="10" height="570" as="geometry" />
        </mxCell>
        <mxCell id="l6THZrN9f41VRggdj1tv-104" value="" style="shape=umlLifeline;perimeter=lifelinePerimeter;whiteSpace=wrap;html=1;container=1;dropTarget=0;collapsible=0;recursiveResize=0;outlineConnect=0;portConstraint=eastwest;newEdgeStyle={&quot;edgeStyle&quot;:&quot;elbowEdgeStyle&quot;,&quot;elbow&quot;:&quot;vertical&quot;,&quot;curved&quot;:0,&quot;rounded&quot;:0};participant=umlEntity;" vertex="1" parent="1">
          <mxGeometry x="2065" y="570" width="40" height="840" as="geometry" />
        </mxCell>
        <mxCell id="l6THZrN9f41VRggdj1tv-105" value="" style="html=1;points=[];perimeter=orthogonalPerimeter;outlineConnect=0;targetShapes=umlLifeline;portConstraint=eastwest;newEdgeStyle={&quot;edgeStyle&quot;:&quot;elbowEdgeStyle&quot;,&quot;elbow&quot;:&quot;vertical&quot;,&quot;curved&quot;:0,&quot;rounded&quot;:0};" vertex="1" parent="l6THZrN9f41VRggdj1tv-104">
          <mxGeometry x="15" y="90" width="10" height="170" as="geometry" />
        </mxCell>
        <mxCell id="l6THZrN9f41VRggdj1tv-106" value="" style="shape=umlLifeline;perimeter=lifelinePerimeter;whiteSpace=wrap;html=1;container=1;dropTarget=0;collapsible=0;recursiveResize=0;outlineConnect=0;portConstraint=eastwest;newEdgeStyle={&quot;edgeStyle&quot;:&quot;elbowEdgeStyle&quot;,&quot;elbow&quot;:&quot;vertical&quot;,&quot;curved&quot;:0,&quot;rounded&quot;:0};participant=umlEntity;" vertex="1" parent="1">
          <mxGeometry x="2155" y="570" width="40" height="920" as="geometry" />
        </mxCell>
        <mxCell id="l6THZrN9f41VRggdj1tv-107" value="" style="html=1;points=[];perimeter=orthogonalPerimeter;outlineConnect=0;targetShapes=umlLifeline;portConstraint=eastwest;newEdgeStyle={&quot;edgeStyle&quot;:&quot;elbowEdgeStyle&quot;,&quot;elbow&quot;:&quot;vertical&quot;,&quot;curved&quot;:0,&quot;rounded&quot;:0};" vertex="1" parent="l6THZrN9f41VRggdj1tv-106">
          <mxGeometry x="15" y="142" width="10" height="18" as="geometry" />
        </mxCell>
        <mxCell id="l6THZrN9f41VRggdj1tv-108" value="" style="shape=umlLifeline;perimeter=lifelinePerimeter;whiteSpace=wrap;html=1;container=1;dropTarget=0;collapsible=0;recursiveResize=0;outlineConnect=0;portConstraint=eastwest;newEdgeStyle={&quot;edgeStyle&quot;:&quot;elbowEdgeStyle&quot;,&quot;elbow&quot;:&quot;vertical&quot;,&quot;curved&quot;:0,&quot;rounded&quot;:0};participant=umlActor;" vertex="1" parent="1">
          <mxGeometry x="1865" y="560" width="20" height="990" as="geometry" />
        </mxCell>
        <mxCell id="l6THZrN9f41VRggdj1tv-109" value="" style="html=1;points=[];perimeter=orthogonalPerimeter;outlineConnect=0;targetShapes=umlLifeline;portConstraint=eastwest;newEdgeStyle={&quot;edgeStyle&quot;:&quot;elbowEdgeStyle&quot;,&quot;elbow&quot;:&quot;vertical&quot;,&quot;curved&quot;:0,&quot;rounded&quot;:0};" vertex="1" parent="l6THZrN9f41VRggdj1tv-108">
          <mxGeometry x="5" y="220" width="10" height="330" as="geometry" />
        </mxCell>
        <mxCell id="l6THZrN9f41VRggdj1tv-110" value="getShopData()" style="endArrow=classic;html=1;rounded=0;" edge="1" parent="1" source="l6THZrN9f41VRggdj1tv-102" target="l6THZrN9f41VRggdj1tv-104">
          <mxGeometry x="-0.0402" y="10" width="50" height="50" relative="1" as="geometry">
            <mxPoint x="2035" y="770" as="sourcePoint" />
            <mxPoint x="2085" y="720" as="targetPoint" />
            <Array as="points">
              <mxPoint x="2055" y="660" />
            </Array>
            <mxPoint as="offset" />
          </mxGeometry>
        </mxCell>
        <mxCell id="l6THZrN9f41VRggdj1tv-111" value="retShopData()" style="endArrow=classic;html=1;rounded=0;dashed=1;" edge="1" parent="1" source="l6THZrN9f41VRggdj1tv-104" target="l6THZrN9f41VRggdj1tv-102">
          <mxGeometry x="0.0402" y="-10" width="50" height="50" relative="1" as="geometry">
            <mxPoint x="2035" y="770" as="sourcePoint" />
            <mxPoint x="2085" y="720" as="targetPoint" />
            <Array as="points">
              <mxPoint x="2035" y="690" />
            </Array>
            <mxPoint as="offset" />
          </mxGeometry>
        </mxCell>
        <mxCell id="l6THZrN9f41VRggdj1tv-112" value="chooseShop()" style="endArrow=classic;html=1;rounded=0;" edge="1" parent="1" source="l6THZrN9f41VRggdj1tv-108" target="l6THZrN9f41VRggdj1tv-102">
          <mxGeometry x="0.0536" y="10" width="50" height="50" relative="1" as="geometry">
            <mxPoint x="2035" y="770" as="sourcePoint" />
            <mxPoint x="2085" y="720" as="targetPoint" />
            <Array as="points">
              <mxPoint x="1955" y="780" />
            </Array>
            <mxPoint as="offset" />
          </mxGeometry>
        </mxCell>
        <mxCell id="l6THZrN9f41VRggdj1tv-113" value="getShopData()" style="endArrow=classic;html=1;rounded=0;" edge="1" parent="1" source="l6THZrN9f41VRggdj1tv-102" target="l6THZrN9f41VRggdj1tv-104">
          <mxGeometry x="-0.0402" y="10" width="50" height="50" relative="1" as="geometry">
            <mxPoint x="2025" y="770" as="sourcePoint" />
            <mxPoint x="2075" y="720" as="targetPoint" />
            <Array as="points">
              <mxPoint x="2045" y="800" />
            </Array>
            <mxPoint as="offset" />
          </mxGeometry>
        </mxCell>
        <mxCell id="l6THZrN9f41VRggdj1tv-114" value="showAvaiProducts()" style="endArrow=classic;html=1;rounded=0;" edge="1" parent="1" source="l6THZrN9f41VRggdj1tv-102" target="l6THZrN9f41VRggdj1tv-100">
          <mxGeometry x="0.0399" y="10" width="50" height="50" relative="1" as="geometry">
            <mxPoint x="2025" y="770" as="sourcePoint" />
            <mxPoint x="2075" y="720" as="targetPoint" />
            <Array as="points">
              <mxPoint x="2135" y="860" />
            </Array>
            <mxPoint as="offset" />
          </mxGeometry>
        </mxCell>
        <mxCell id="l6THZrN9f41VRggdj1tv-115" value="confirm()" style="endArrow=classic;html=1;rounded=0;" edge="1" parent="1" source="l6THZrN9f41VRggdj1tv-108" target="l6THZrN9f41VRggdj1tv-98">
          <mxGeometry width="50" height="50" relative="1" as="geometry">
            <mxPoint x="2155" y="770" as="sourcePoint" />
            <mxPoint x="2205" y="720" as="targetPoint" />
            <Array as="points">
              <mxPoint x="2295" y="920" />
            </Array>
          </mxGeometry>
        </mxCell>
        <mxCell id="l6THZrN9f41VRggdj1tv-116" value="fillForm()" style="endArrow=classic;html=1;rounded=0;" edge="1" parent="1" source="l6THZrN9f41VRggdj1tv-108" target="l6THZrN9f41VRggdj1tv-96">
          <mxGeometry width="50" height="50" relative="1" as="geometry">
            <mxPoint x="2175" y="890" as="sourcePoint" />
            <mxPoint x="2225" y="840" as="targetPoint" />
            <Array as="points">
              <mxPoint x="2185" y="960" />
            </Array>
          </mxGeometry>
        </mxCell>
        <mxCell id="l6THZrN9f41VRggdj1tv-117" value="" style="shape=umlLifeline;perimeter=lifelinePerimeter;whiteSpace=wrap;html=1;container=1;dropTarget=0;collapsible=0;recursiveResize=0;outlineConnect=0;portConstraint=eastwest;newEdgeStyle={&quot;edgeStyle&quot;:&quot;elbowEdgeStyle&quot;,&quot;elbow&quot;:&quot;vertical&quot;,&quot;curved&quot;:0,&quot;rounded&quot;:0};participant=umlEntity;size=40;" vertex="1" parent="1">
          <mxGeometry x="2355" y="573" width="40" height="897" as="geometry" />
        </mxCell>
        <mxCell id="l6THZrN9f41VRggdj1tv-118" value="" style="html=1;points=[];perimeter=orthogonalPerimeter;outlineConnect=0;targetShapes=umlLifeline;portConstraint=eastwest;newEdgeStyle={&quot;edgeStyle&quot;:&quot;elbowEdgeStyle&quot;,&quot;elbow&quot;:&quot;vertical&quot;,&quot;curved&quot;:0,&quot;rounded&quot;:0};" vertex="1" parent="l6THZrN9f41VRggdj1tv-117">
          <mxGeometry x="15" y="297" width="10" height="183" as="geometry" />
        </mxCell>
        <mxCell id="l6THZrN9f41VRggdj1tv-119" value="addToCart()" style="endArrow=classic;html=1;rounded=0;" edge="1" parent="1" source="l6THZrN9f41VRggdj1tv-100" target="l6THZrN9f41VRggdj1tv-117">
          <mxGeometry width="50" height="50" relative="1" as="geometry">
            <mxPoint x="2325" y="820" as="sourcePoint" />
            <mxPoint x="2375" y="770" as="targetPoint" />
            <Array as="points">
              <mxPoint x="2325" y="870" />
            </Array>
          </mxGeometry>
        </mxCell>
        <mxCell id="l6THZrN9f41VRggdj1tv-120" value="showConfirm()" style="endArrow=classic;html=1;rounded=0;" edge="1" parent="1" source="l6THZrN9f41VRggdj1tv-117" target="l6THZrN9f41VRggdj1tv-98">
          <mxGeometry x="-0.0449" y="10" width="50" height="50" relative="1" as="geometry">
            <mxPoint x="2375" y="820" as="sourcePoint" />
            <mxPoint x="2375" y="770" as="targetPoint" />
            <Array as="points">
              <mxPoint x="2435" y="890" />
            </Array>
            <mxPoint as="offset" />
          </mxGeometry>
        </mxCell>
        <mxCell id="l6THZrN9f41VRggdj1tv-121" value="showForm()" style="endArrow=classic;html=1;rounded=0;" edge="1" parent="1" source="l6THZrN9f41VRggdj1tv-98" target="l6THZrN9f41VRggdj1tv-96">
          <mxGeometry x="0.0037" width="50" height="50" relative="1" as="geometry">
            <mxPoint x="2325" y="820" as="sourcePoint" />
            <mxPoint x="2375" y="770" as="targetPoint" />
            <Array as="points">
              <mxPoint x="2515" y="940" />
            </Array>
            <mxPoint as="offset" />
          </mxGeometry>
        </mxCell>
        <mxCell id="l6THZrN9f41VRggdj1tv-122" value="ALT1" style="shape=umlFrame;whiteSpace=wrap;html=1;pointerEvents=0;" vertex="1" parent="1">
          <mxGeometry x="1930" y="980" width="870" height="450" as="geometry" />
        </mxCell>
        <mxCell id="l6THZrN9f41VRggdj1tv-123" value="info&lt;br&gt;valid" style="text;html=1;align=center;verticalAlign=middle;resizable=0;points=[];autosize=1;strokeColor=none;fillColor=none;" vertex="1" parent="1">
          <mxGeometry x="2005" y="1010" width="50" height="40" as="geometry" />
        </mxCell>
        <mxCell id="l6THZrN9f41VRggdj1tv-124" value="getCartData()" style="endArrow=classic;html=1;rounded=0;" edge="1" parent="1" source="l6THZrN9f41VRggdj1tv-96" target="l6THZrN9f41VRggdj1tv-117">
          <mxGeometry x="0.0708" y="-10" width="50" height="50" relative="1" as="geometry">
            <mxPoint x="2535" y="820" as="sourcePoint" />
            <mxPoint x="2585" y="770" as="targetPoint" />
            <Array as="points">
              <mxPoint x="2475" y="1030" />
            </Array>
            <mxPoint as="offset" />
          </mxGeometry>
        </mxCell>
        <mxCell id="l6THZrN9f41VRggdj1tv-125" value="showPurchase()" style="endArrow=classic;html=1;rounded=0;" edge="1" parent="1" target="l6THZrN9f41VRggdj1tv-95">
          <mxGeometry width="50" height="50" relative="1" as="geometry">
            <mxPoint x="2575" y="1070" as="sourcePoint" />
            <mxPoint x="2585" y="910" as="targetPoint" />
            <Array as="points" />
          </mxGeometry>
        </mxCell>
        <mxCell id="l6THZrN9f41VRggdj1tv-126" value="confirm()" style="endArrow=classic;html=1;rounded=0;" edge="1" parent="1" source="l6THZrN9f41VRggdj1tv-108">
          <mxGeometry width="50" height="50" relative="1" as="geometry">
            <mxPoint x="2105" y="1110" as="sourcePoint" />
            <mxPoint x="2691" y="1110" as="targetPoint" />
            <Array as="points">
              <mxPoint x="2526" y="1110" />
            </Array>
          </mxGeometry>
        </mxCell>
        <mxCell id="l6THZrN9f41VRggdj1tv-127" value="Pay()" style="endArrow=classic;html=1;rounded=0;" edge="1" parent="1" source="l6THZrN9f41VRggdj1tv-95" target="l6THZrN9f41VRggdj1tv-95">
          <mxGeometry y="10" width="50" height="50" relative="1" as="geometry">
            <mxPoint x="2485" y="1020" as="sourcePoint" />
            <mxPoint x="2535" y="970" as="targetPoint" />
            <Array as="points">
              <mxPoint x="2715" y="1130" />
              <mxPoint x="2735" y="1130" />
              <mxPoint x="2735" y="1150" />
            </Array>
            <mxPoint as="offset" />
          </mxGeometry>
        </mxCell>
        <mxCell id="l6THZrN9f41VRggdj1tv-128" value="ALT2" style="shape=umlFrame;whiteSpace=wrap;html=1;pointerEvents=0;" vertex="1" parent="1">
          <mxGeometry x="1945" y="1120" width="840" height="130" as="geometry" />
        </mxCell>
        <mxCell id="l6THZrN9f41VRggdj1tv-129" value="" style="endArrow=none;dashed=1;html=1;rounded=0;exitX=0;exitY=0.543;exitDx=0;exitDy=0;exitPerimeter=0;entryX=1;entryY=0.543;entryDx=0;entryDy=0;entryPerimeter=0;dashPattern=8 8;" edge="1" parent="1" source="l6THZrN9f41VRggdj1tv-128" target="l6THZrN9f41VRggdj1tv-128">
          <mxGeometry width="50" height="50" relative="1" as="geometry">
            <mxPoint x="2285" y="1090" as="sourcePoint" />
            <mxPoint x="2335" y="1040" as="targetPoint" />
          </mxGeometry>
        </mxCell>
        <mxCell id="l6THZrN9f41VRggdj1tv-130" value="Client confirms&lt;br&gt;" style="text;html=1;align=center;verticalAlign=middle;resizable=0;points=[];autosize=1;strokeColor=none;fillColor=none;" vertex="1" parent="1">
          <mxGeometry x="1985" y="1138" width="100" height="30" as="geometry" />
        </mxCell>
        <mxCell id="l6THZrN9f41VRggdj1tv-131" value="Client doesnt confirm" style="text;html=1;align=center;verticalAlign=middle;resizable=0;points=[];autosize=1;strokeColor=none;fillColor=none;" vertex="1" parent="1">
          <mxGeometry x="1945" y="1200" width="140" height="30" as="geometry" />
        </mxCell>
        <mxCell id="l6THZrN9f41VRggdj1tv-132" value="" style="endArrow=classic;html=1;rounded=0;" edge="1" parent="1" source="l6THZrN9f41VRggdj1tv-95" target="l6THZrN9f41VRggdj1tv-102">
          <mxGeometry width="50" height="50" relative="1" as="geometry">
            <mxPoint x="2515" y="1210" as="sourcePoint" />
            <mxPoint x="2565" y="1160" as="targetPoint" />
            <Array as="points">
              <mxPoint x="2395" y="1230" />
            </Array>
          </mxGeometry>
        </mxCell>
        <mxCell id="l6THZrN9f41VRggdj1tv-133" value="showShopList()" style="edgeLabel;html=1;align=center;verticalAlign=middle;resizable=0;points=[];" vertex="1" connectable="0" parent="l6THZrN9f41VRggdj1tv-132">
          <mxGeometry x="-0.0029" relative="1" as="geometry">
            <mxPoint x="15" y="-10" as="offset" />
          </mxGeometry>
        </mxCell>
        <mxCell id="l6THZrN9f41VRggdj1tv-134" value="" style="endArrow=none;dashed=1;html=1;dashPattern=8 8;strokeWidth=2;rounded=0;exitX=-0.004;exitY=0.685;exitDx=0;exitDy=0;exitPerimeter=0;entryX=1;entryY=0.684;entryDx=0;entryDy=0;entryPerimeter=0;" edge="1" parent="1" source="l6THZrN9f41VRggdj1tv-122" target="l6THZrN9f41VRggdj1tv-122">
          <mxGeometry width="50" height="50" relative="1" as="geometry">
            <mxPoint x="2435" y="1170" as="sourcePoint" />
            <mxPoint x="2844.76469152114" y="1290" as="targetPoint" />
          </mxGeometry>
        </mxCell>
        <mxCell id="l6THZrN9f41VRggdj1tv-135" value="info&lt;br&gt;invalid" style="text;html=1;align=center;verticalAlign=middle;resizable=0;points=[];autosize=1;strokeColor=none;fillColor=none;" vertex="1" parent="1">
          <mxGeometry x="2005" y="1317" width="60" height="40" as="geometry" />
        </mxCell>
        <mxCell id="l6THZrN9f41VRggdj1tv-136" value="showForm()" style="endArrow=classic;html=1;rounded=0;" edge="1" parent="1" source="l6THZrN9f41VRggdj1tv-96" target="l6THZrN9f41VRggdj1tv-96">
          <mxGeometry x="0.0987" y="30" width="50" height="50" relative="1" as="geometry">
            <mxPoint x="2455" y="1170" as="sourcePoint" />
            <mxPoint x="2505" y="1120" as="targetPoint" />
            <Array as="points">
              <mxPoint x="2605" y="1310" />
              <mxPoint x="2605" y="1340" />
            </Array>
            <mxPoint as="offset" />
          </mxGeometry>
        </mxCell>
        <mxCell id="l6THZrN9f41VRggdj1tv-137" value="getBalance()" style="endArrow=classic;html=1;rounded=0;" edge="1" parent="1" source="l6THZrN9f41VRggdj1tv-102" target="l6THZrN9f41VRggdj1tv-106">
          <mxGeometry width="50" height="50" relative="1" as="geometry">
            <mxPoint x="2085" y="710" as="sourcePoint" />
            <mxPoint x="2135" y="660" as="targetPoint" />
            <Array as="points">
              <mxPoint x="2085" y="710" />
            </Array>
          </mxGeometry>
        </mxCell>
        <mxCell id="l6THZrN9f41VRggdj1tv-138" value="retBalance()" style="endArrow=classic;html=1;rounded=0;strokeColor=default;dashed=1;" edge="1" parent="1" source="l6THZrN9f41VRggdj1tv-106" target="l6THZrN9f41VRggdj1tv-102">
          <mxGeometry x="-0.0334" width="50" height="50" relative="1" as="geometry">
            <mxPoint x="2085" y="710" as="sourcePoint" />
            <mxPoint x="2135" y="660" as="targetPoint" />
            <Array as="points">
              <mxPoint x="2085" y="730" />
            </Array>
            <mxPoint as="offset" />
          </mxGeometry>
        </mxCell>
        <mxCell id="l6THZrN9f41VRggdj1tv-139" value="retShopData()" style="endArrow=classic;html=1;rounded=0;dashed=1;" edge="1" parent="1" source="l6THZrN9f41VRggdj1tv-104" target="l6THZrN9f41VRggdj1tv-102">
          <mxGeometry x="0.0402" y="-10" width="50" height="50" relative="1" as="geometry">
            <mxPoint x="2025" y="830" as="sourcePoint" />
            <mxPoint x="2075" y="780" as="targetPoint" />
            <Array as="points">
              <mxPoint x="2055" y="830" />
            </Array>
            <mxPoint as="offset" />
          </mxGeometry>
        </mxCell>
        <mxCell id="l6THZrN9f41VRggdj1tv-140" value="showShopList()" style="endArrow=classic;html=1;rounded=0;" edge="1" parent="1" source="l6THZrN9f41VRggdj1tv-102" target="l6THZrN9f41VRggdj1tv-102">
          <mxGeometry y="30" width="50" height="50" relative="1" as="geometry">
            <mxPoint x="2025" y="830" as="sourcePoint" />
            <mxPoint x="2075" y="780" as="targetPoint" />
            <Array as="points">
              <mxPoint x="2025" y="750" />
              <mxPoint x="2025" y="770" />
            </Array>
            <mxPoint as="offset" />
          </mxGeometry>
        </mxCell>
        <mxCell id="l6THZrN9f41VRggdj1tv-141" value="retCartData()" style="endArrow=classic;html=1;rounded=0;dashed=1;" edge="1" parent="1" source="l6THZrN9f41VRggdj1tv-117" target="l6THZrN9f41VRggdj1tv-96">
          <mxGeometry width="50" height="50" relative="1" as="geometry">
            <mxPoint x="2555" y="950" as="sourcePoint" />
            <mxPoint x="2605" y="900" as="targetPoint" />
            <Array as="points">
              <mxPoint x="2475" y="1050" />
            </Array>
          </mxGeometry>
        </mxCell>
        <mxCell id="l6THZrN9f41VRggdj1tv-142" value="" style="html=1;points=[];perimeter=orthogonalPerimeter;outlineConnect=0;targetShapes=umlLifeline;portConstraint=eastwest;newEdgeStyle={&quot;edgeStyle&quot;:&quot;elbowEdgeStyle&quot;,&quot;elbow&quot;:&quot;vertical&quot;,&quot;curved&quot;:0,&quot;rounded&quot;:0};" vertex="1" parent="1">
          <mxGeometry x="2685" y="1070" width="10" height="80" as="geometry" />
        </mxCell>
        <mxCell id="l6THZrN9f41VRggdj1tv-143" value="ShoppingPage" style="rounded=0;whiteSpace=wrap;html=1;" vertex="1" parent="1">
          <mxGeometry x="1947.5" y="570" width="85" height="40" as="geometry" />
        </mxCell>
        <mxCell id="l6THZrN9f41VRggdj1tv-144" value="&lt;font style=&quot;font-size: 9px;&quot;&gt;ShopsAndProducts&lt;/font&gt;" style="rounded=0;whiteSpace=wrap;html=1;" vertex="1" parent="1">
          <mxGeometry x="2042.5" y="570" width="85" height="40" as="geometry" />
        </mxCell>
        <mxCell id="l6THZrN9f41VRggdj1tv-145" value="User" style="rounded=0;whiteSpace=wrap;html=1;" vertex="1" parent="1">
          <mxGeometry x="2133.75" y="569.5" width="82" height="41" as="geometry" />
        </mxCell>
        <mxCell id="l6THZrN9f41VRggdj1tv-146" value="ProductsPage" style="rounded=0;whiteSpace=wrap;html=1;" vertex="1" parent="1">
          <mxGeometry x="2227.5" y="568" width="87.5" height="42" as="geometry" />
        </mxCell>
        <mxCell id="l6THZrN9f41VRggdj1tv-147" value="Cart" style="rounded=0;whiteSpace=wrap;html=1;" vertex="1" parent="1">
          <mxGeometry x="2330" y="570" width="85" height="42.5" as="geometry" />
        </mxCell>
        <mxCell id="l6THZrN9f41VRggdj1tv-148" value="CheckoutPage" style="rounded=0;whiteSpace=wrap;html=1;" vertex="1" parent="1">
          <mxGeometry x="2427.5" y="568" width="87.5" height="42" as="geometry" />
        </mxCell>
        <mxCell id="l6THZrN9f41VRggdj1tv-149" value="InfoPage" style="rounded=0;whiteSpace=wrap;html=1;" vertex="1" parent="1">
          <mxGeometry x="2527.5" y="566.5" width="85" height="40" as="geometry" />
        </mxCell>
        <mxCell id="l6THZrN9f41VRggdj1tv-150" value="ConfirmationPage" style="rounded=0;whiteSpace=wrap;html=1;" vertex="1" parent="1">
          <mxGeometry x="2650" y="566.5" width="95" height="43.5" as="geometry" />
        </mxCell>
        <mxCell id="l6THZrN9f41VRggdj1tv-151" value="User" style="text;html=1;align=center;verticalAlign=middle;resizable=0;points=[];autosize=1;strokeColor=none;fillColor=none;" vertex="1" parent="1">
          <mxGeometry x="1850" y="530" width="50" height="30" as="geometry" />
        </mxCell>
      </root>
    </mxGraphModel>
  </diagram>
</mxfile>
